<?xml version="1.0" encoding="UTF-8"?>
<svg version="1.1" xmlns="http://www.w3.org/2000/svg" width="2000" height="1500">
<path d="M0 0 C660 0 1320 0 2000 0 C2000 495 2000 990 2000 1500 C1340 1500 680 1500 0 1500 C0 1005 0 510 0 0 Z " fill="#24283B" transform="translate(0,0)"/>
<path d="M0 0 C308.55 0 617.1 0 935 0 C935 51.15 935 102.3 935 155 C918.17 155 901.34 155 884 155 C884 121.01 884 87.02 884 52 C609.44 52 334.88 52 52 52 C52 326.23 52 600.46 52 883 C326.56 883 601.12 883 884 883 C884 849.01 884 815.02 884 780 C900.83 780 917.66 780 935 780 C935 831.15 935 882.3 935 935 C626.45 935 317.9 935 0 935 C0 626.45 0 317.9 0 0 Z " fill="#99A4CD" transform="translate(532,282)"/>
<path d="M0 0 C1.01119524 0.00037972 2.02239048 0.00075944 3.064228 0.00115067 C4.22618977 -0.00084038 5.38815155 -0.00283143 6.58532429 -0.00488281 C7.87809723 -0.00196997 9.17087017 0.00094287 10.50281805 0.00394398 C11.87723983 0.0035084 13.25166153 0.00263373 14.62608278 0.00135481 C18.42055801 -0.00089273 22.21500529 0.00313465 26.00947696 0.00813287 C30.09470547 0.0124335 34.17993228 0.01099123 38.26516241 0.0102306 C45.34896814 0.00970512 52.4327647 0.01285445 59.51656812 0.01846844 C69.75867958 0.02658017 80.00078658 0.02919832 90.2429009 0.03045643 C106.8582646 0.03264747 123.47362339 0.03930895 140.08898443 0.04875904 C156.23351543 0.05793183 172.3780451 0.06501331 188.52257818 0.06926686 C189.51698498 0.06952958 190.51139179 0.0697923 191.53593213 0.07006299 C196.52435722 0.07136798 201.51278231 0.0726317 206.50120741 0.07387489 C247.91434027 0.08424911 289.32746773 0.10186883 330.74059576 0.1241985 C326.26616409 24.57351171 320.91523722 48.80338362 315.74059576 73.1241985 C238.85059576 73.1241985 161.96059576 73.1241985 82.74059576 73.1241985 C82.08059576 78.0741985 81.42059576 83.0241985 80.74059576 88.1241985 C80.15036377 91.4067222 79.53999775 94.65962388 78.85778326 97.9210735 C78.68267721 98.78132633 78.50757116 99.64157917 78.32715887 100.52790028 C77.95385125 102.36123863 77.57851962 104.19416592 77.2012586 106.02669483 C76.17983316 110.99288439 75.17630598 115.96267547 74.17418951 120.93279225 C73.96901205 121.94995823 73.76383459 122.96712422 73.55243963 124.01511341 C71.48711455 134.30271742 69.57126507 144.61626181 67.67809576 154.9366985 C64.78791916 170.6809635 61.74227616 186.38705543 58.52941412 202.06877857 C56.02288617 214.39599756 53.89906337 226.71300973 51.74059576 239.1241985 C113.45059576 239.1241985 175.16059576 239.1241985 238.74059576 239.1241985 C236.49042868 252.62520095 236.49042868 252.62520095 235.22497076 258.34685475 C234.94604986 259.61521168 234.66712896 260.88356861 234.37975591 262.19036061 C234.08352226 263.52250728 233.78713232 264.85461921 233.49059576 266.1866985 C233.18227711 267.58061295 232.874175 268.97457531 232.56627935 270.36858326 C231.93746181 273.2135753 231.30682166 276.05815566 230.67516607 278.90251881 C229.91273897 282.34006626 229.15906574 285.77944769 228.40966314 289.21985584 C227.73099436 292.33439149 227.04784278 295.44794503 226.36559576 298.5616985 C226.11519537 299.71613453 225.86479498 300.87057057 225.6068067 302.05998951 C225.37509771 303.11113941 225.14338873 304.16228932 224.90465826 305.24529225 C224.70308111 306.1675359 224.50150396 307.08977955 224.29381841 308.03996998 C223.74059576 310.1241985 223.74059576 310.1241985 222.74059576 311.1241985 C220.33731047 311.22186391 217.96280224 311.25416678 215.55906194 311.24445301 C214.4184692 311.24573465 214.4184692 311.24573465 213.25483418 311.24704218 C210.68748326 311.24869927 208.12019659 311.24317189 205.55285162 311.23772389 C203.72021512 311.23744204 201.88757851 311.2375997 200.05494207 311.23816639 C195.06341514 311.23845446 190.07191201 311.23255627 185.08039063 311.22559243 C179.87000469 311.2193604 174.65961827 311.21875522 169.44922918 311.21756703 C159.57528551 311.21445326 149.70135285 311.20623927 139.82741404 311.19621754 C128.58939575 311.18505779 117.35137695 311.1795463 106.1133545 311.1745221 C82.98909547 311.1640567 59.86484623 311.14645639 36.74059576 311.1241985 C36.64513684 312.02539433 36.64513684 312.02539433 36.54774946 312.94479614 C36.46158558 313.74208287 36.37542169 314.5393696 36.28664678 315.36081654 C36.2023825 316.14723876 36.11811823 316.93366099 36.03130049 317.74391419 C35.58051469 321.434939 34.86980333 325.06202822 34.13903326 328.70622975 C33.9820194 329.50510105 33.82500555 330.30397236 33.6632337 331.12705189 C33.15071768 333.73094369 32.63313244 336.3338004 32.11559576 338.9366985 C31.75256516 340.77711435 31.38994115 342.61761046 31.02770513 344.45818287 C30.28857717 348.21253619 29.54786423 351.96657134 28.80602545 355.7203899 C27.40939965 362.79486205 26.03454802 369.87352233 24.66179937 376.95265919 C23.94956338 380.62463258 23.23573556 384.29629633 22.52184576 387.9679485 C22.37832678 388.7061533 22.23480779 389.4443581 22.08693975 390.20493275 C20.47863677 398.47501831 18.86449232 406.74396314 17.25030035 415.01290089 C16.74188364 417.61760047 16.23363798 420.22233337 15.72545904 422.82707936 C15.47540609 424.10875744 15.47540609 424.10875744 15.22030157 425.41632801 C14.88543655 427.13274737 14.55057731 428.84916786 14.21572393 430.56558949 C13.25930186 435.46756788 12.30185646 440.36934484 11.34356207 445.27095753 C10.74176057 448.35047286 10.14097261 451.4301854 9.54040045 454.50994068 C9.14440591 456.53907133 8.74723447 458.5679722 8.34997076 460.59685475 C5.39545037 475.75742399 2.58732688 490.94163253 -0.25940424 506.1241985 C78.61059576 506.1241985 157.48059576 506.1241985 238.74059576 506.1241985 C238.74059576 530.2141985 238.74059576 554.3041985 238.74059576 579.1241985 C122.25059576 579.1241985 5.76059576 579.1241985 -114.25940424 579.1241985 C-113.58515643 571.70747251 -112.76012311 564.65709167 -111.36096674 557.3898235 C-111.17031641 556.37838276 -110.97966608 555.36694203 -110.78323847 554.32485157 C-110.15586145 551.00688288 -109.52043986 547.69051741 -108.88440424 544.3741985 C-108.43862666 542.03031228 -107.99299129 539.686399 -107.54749018 537.34246022 C-103.20154339 514.55340175 -98.63014901 491.8096855 -94.05394465 469.06600147 C-89.62889877 447.05726258 -85.4777008 424.99748301 -81.32190424 402.9366985 C-75.39507855 371.47586479 -69.26029902 340.06440143 -62.96780878 308.67464405 C-59.57262585 291.73714651 -56.22583036 274.79254519 -52.97180659 257.8273235 C-51.74712602 251.46133488 -50.50771166 245.0982142 -49.26913935 238.73491627 C-48.82164704 236.43537679 -48.37457355 234.13575625 -47.92761713 231.83611256 C-46.62839298 225.15256494 -45.32789517 218.46928046 -44.0193072 211.78755909 C-43.32738042 208.25415864 -42.63680915 204.72049424 -41.94690424 201.1866985 C-41.80612452 200.46572987 -41.66534479 199.74476124 -41.52029902 199.00194508 C-39.63687087 189.34388997 -37.79358698 179.67881338 -35.98206049 170.007011 C-35.78269388 168.94291508 -35.58332728 167.87881916 -35.37791926 166.78247792 C-35.17517893 165.70036534 -34.9724386 164.61825276 -34.76355463 163.50334889 C-29.73453605 136.66510962 -24.45008862 109.8847023 -19.06309992 83.11623341 C-17.36841794 74.6872482 -15.70196457 66.25342996 -14.07190424 57.8116985 C-13.85219965 56.67410084 -13.63249506 55.53650318 -13.40613276 54.36443287 C-12.16020655 47.88289324 -10.93299659 41.39796615 -9.71266657 34.91156727 C-8.97519511 30.99372605 -8.23511645 27.07637864 -7.4950915 23.15901905 C-6.95547953 20.29471677 -6.42044769 17.42958383 -5.88562495 14.56438404 C-5.55599172 12.81605516 -5.22616719 11.06776234 -4.89612299 9.319511 C-4.66999827 8.09704922 -4.66999827 8.09704922 -4.43930537 6.84989125 C-3.17102326 0.17430981 -3.17102326 0.17430981 0 0 Z " fill="#99A4CD" transform="translate(892.2594042420387,459.8758015036583)"/>
</svg>
